<?xml version="1.0" encoding="utf-8"?>
<!-- Generator: Adobe Illustrator 26.5.3, SVG Export Plug-In . SVG Version: 6.00 Build 0)  -->
<svg version="1.1" id="Layer_1" xmlns="http://www.w3.org/2000/svg" xmlns:xlink="http://www.w3.org/1999/xlink" x="0px" y="0px"
	 width="368.3px" height="37.5px" viewBox="0 0 368.3 37.5" style="enable-background:new 0 0 368.3 37.5;" xml:space="preserve">
<style type="text/css">
	.st0{fill:#FFFFFF;}
</style>
<g>
	<g>
		<g>
			<path class="st0" d="M194.2,33.2V16.5h2.8V21h2.4c3.4,0,6,2.2,6,6.1c0,3.9-2.6,6.1-6,6.1H194.2z M197,30.9h2
				c2.3,0,3.4-1.5,3.4-3.8c0-2.3-1.1-3.8-3.4-3.8h-2V30.9z"/>
			<path class="st0" d="M209.7,37.5l1.8-4.3L206.2,21h3l3.7,9.1l3.5-9.1h2.9l-6.9,16.6H209.7z"/>
		</g>
		<polygon class="st0" points="299,6.4 294.4,6.4 294.4,33.3 309.2,33.3 311.2,29.2 299,29.2 		"/>
		<path class="st0" d="M322.8,13.6h-7.4l-1.9,3.8h9.3c1.9,0,2.7,1,2.7,2.7v1.3h-7.3c-4.1,0-6.3,2.6-6.3,5.9c0,3.3,2.2,5.9,6.3,5.9
			H330V20.1C330,15.9,327.5,13.6,322.8,13.6z M325.6,29.5h-6.9c-1.4,0-2.1-1-2.1-2.2c0-1.2,0.7-2.3,2.1-2.3h6.9V29.5z"/>
		<path class="st0" d="M349,23.1c0.8-1,1.3-2.3,1.3-3.8c0-3.4-2.4-5.7-6-5.7h-4.5l0,0c-4.7,0-7.1,2.3-7.1,6.5V37h4.4v-3.7h7.3
			c4.1,0,6.3-2.7,6.3-5.9C350.6,25.7,350.1,24.2,349,23.1z M344,29.5h-6.9v-9.4c0-1.8,0.9-2.7,2.7-2.7h4.2c1.1,0,1.9,0.7,1.9,2
			c0,1-0.5,2.1-1.9,2.1h-4.7V25v0h4.7c1.4,0,2.1,1.1,2.1,2.3C346.1,28.5,345.4,29.5,344,29.5z"/>
		<path class="st0" d="M364.4,22.4l-6.3-1.7c-1-0.2-1.4-0.9-1.4-1.7c0-1.2,0.7-1.8,1.9-1.8h6.8l1.8-3.6h-9.3c-3.5,0-5.6,2.3-5.6,5.6
			c0,2.6,1.5,4.5,4.3,5.3l6,1.6c1,0.3,1.5,0.9,1.5,1.7c0,1.2-0.7,1.8-2.1,1.8h-7.9l-1.9,3.7h10.4c3.7,0,5.9-2.2,5.9-5.6
			C368.3,25,366.6,23.1,364.4,22.4z"/>
		<polygon class="st0" points="241,6.4 234.8,6.4 234.8,33.3 253.8,33.3 253.8,28 241,28 		"/>
		<path class="st0" d="M267.5,23h5.1v4.7c-0.9,0.3-2.7,0.7-4.5,0.7c-5.6,0-7.4-2.8-7.4-8.6c0-5.5,1.8-8.7,7.4-8.7
			c3.1,0,4.9,1,6.3,2.8l3.9-3.5C275.8,7,271.7,6,267.8,6c-8.7,0-13.3,4.7-13.3,13.8c0,9,4.1,13.9,13.2,13.9c4.2,0,8.3-1.1,10.5-2.6
			V18h-10.8V23z"/>
	</g>
	<g>
		<path class="st0" d="M5.2,13.1c1.5-2.6,4.6-3.9,7.9-3.9c6.4,0,11.7,4.7,11.7,12.3c0,7.4-5.4,12.3-11.8,12.3
			c-3.2,0-6.4-1.4-7.9-3.9v1.1c0,1.4-1.2,2.6-2.7,2.6c-1.4,0-2.5-1.2-2.5-2.6V2.6C0,1.2,1.1,0,2.5,0C4,0,5.2,1.2,5.2,2.6V13.1z
			 M12.5,28.7c3.9,0,7.1-3,7.1-7.3c0-4.3-3.2-7.2-7.1-7.2c-3.5,0-7.2,2.5-7.2,7.2C5.2,26,8.6,28.7,12.5,28.7z"/>
		<path class="st0" d="M35.7,24.8v6.1c0,1.4-1.2,2.6-2.7,2.6c-1.4,0-2.5-1.2-2.5-2.6V12.1c0-1.4,1.1-2.6,2.5-2.6
			c1.5,0,2.7,1.2,2.7,2.6v3c1.2-4.2,3.5-5.9,6.5-5.9c0.8,0,1.5,0.1,2.2,0.2c1.3,0.3,2.2,1.6,1.9,3c-0.5,2.3-2.7,1.7-4.2,1.7
			C37.6,14.1,35.7,18.5,35.7,24.8z"/>
		<path class="st0" d="M55.5,15.5c0-1.4-1.2-2.6-2.7-2.6c-1.4,0-2.5,1.2-2.5,2.6v15.3c0,1.4,1.1,2.6,2.5,2.6c1.5,0,2.7-1.2,2.7-2.6
			V15.5z"/>
		<path class="st0" d="M80.8,2.6C80.8,1.2,82,0,83.5,0C84.9,0,86,1.2,86,2.6v28.2c0,1.4-1.1,2.6-2.5,2.6c-1.5,0-2.7-1.2-2.7-2.6
			v-1.1c-1.5,2.5-4.7,3.9-7.9,3.9c-6.4,0-11.8-4.8-11.8-12.3c0-7.6,5.3-12.3,11.7-12.3c3.3,0,6.5,1.3,7.9,3.9V2.6z M73.6,14.2
			c-3.9,0-7.1,2.8-7.1,7.2c0,4.3,3.2,7.3,7.1,7.3c3.8,0,7.2-2.7,7.2-7.3C80.8,16.8,77.1,14.2,73.6,14.2z"/>
		<path class="st0" d="M118.1,14.6h-10.3c-1.3,0-2.5-1.1-2.5-2.4c0-1.4,1.2-2.5,2.5-2.5h15.3c1.6,0,2.8,1.1,2.8,2.4v0.1
			c0,1-0.4,1.9-1.2,2.7L112,28.3h11.7c1.3,0,2.5,1.1,2.5,2.5c0,1.3-1.2,2.4-2.5,2.4h-16.5c-1.6,0-2.8-1.1-2.8-2.4v-0.1
			c0-1,0.4-1.9,1.2-2.7L118.1,14.6z"/>
		<path class="st0" d="M143.6,14.6h-10.3c-1.3,0-2.5-1.1-2.5-2.4c0-1.4,1.2-2.5,2.5-2.5h15.3c1.6,0,2.8,1.1,2.8,2.4v0.1
			c0,1-0.4,1.9-1.2,2.7l-12.7,13.5h11.7c1.3,0,2.5,1.1,2.5,2.5c0,1.3-1.2,2.4-2.5,2.4h-16.5c-1.6,0-2.8-1.1-2.8-2.4v-0.1
			c0-1,0.4-1.9,1.2-2.7L143.6,14.6z"/>
		<path class="st0" d="M169.2,14.6h-10.3c-1.3,0-2.5-1.1-2.5-2.4c0-1.4,1.2-2.5,2.5-2.5h15.3c1.6,0,2.8,1.1,2.8,2.4v0.1
			c0,1-0.4,1.9-1.2,2.7l-12.7,13.5h11.7c1.3,0,2.5,1.1,2.5,2.5c0,1.3-1.2,2.4-2.5,2.4h-16.5c-1.6,0-2.8-1.1-2.8-2.4v-0.1
			c0-1,0.4-1.9,1.2-2.7L169.2,14.6z"/>
		<path class="st0" d="M52.9,0c1.8,0,3.3,1.4,3.3,3.3s-1.4,3.3-3.3,3.3c-1.8,0-3.3-1.4-3.3-3.3S51.1,0,52.9,0z"/>
		<path class="st0" d="M95.6,27.2c1.8,0,3.3,1.4,3.3,3.3c0,1.9-1.4,3.3-3.3,3.3c-1.8,0-3.3-1.4-3.3-3.3
			C92.3,28.6,93.8,27.2,95.6,27.2z"/>
	</g>
</g>
</svg>
