<?xml version="1.0" encoding="utf-8"?>
<!-- Generator: Adobe Illustrator 26.5.3, SVG Export Plug-In . SVG Version: 6.00 Build 0)  -->
<svg version="1.1" id="Layer_1" xmlns="http://www.w3.org/2000/svg" xmlns:xlink="http://www.w3.org/1999/xlink" x="0px" y="0px"
	 width="576.2px" height="60.4px" viewBox="0 0 576.2 60.4" style="enable-background:new 0 0 576.2 60.4;" xml:space="preserve">
<style type="text/css">
	.st0{fill:#FFFFFF;}
</style>
<g>
	<g>
		<g>
			<path class="st0" d="M141.3,0.7l-3.7,7.2h-18.2c-3.4,0-5.3,2.4-5.3,5s1.1,4.7,4.1,5.6l14.3,4.3c7.3,2.2,10.1,7,10.1,12.4
				c0,7.6-4.5,13.1-13.5,13.1h-23.6l3.7-7.2h19.1c3.5,0,5.9-1.8,5.9-5.2c0-2.7-1.2-4.8-4-5.7l-15.1-4.4c-5.9-1.8-9.7-6.1-9.7-12.3
				c0.3-6.7,4.9-12.8,13.9-12.8C119.3,0.7,141.3,0.7,141.3,0.7z"/>
			<path class="st0" d="M160,48.2c-7.8,0-11.7-3.9-11.7-11.5V2.9h7.9v10.6h13.6l-3.4,6.9h-10.3v16.4c0,3.2,1.6,4.8,4.4,4.8h9.5
				l-3.5,6.7L160,48.2L160,48.2z"/>
			<path class="st0" d="M181.6,60.4l5.1-12.2l-15-34.8h8.4l10.5,25.7l10.1-25.7h8.3l-19.5,47H181.6z"/>
			<path class="st0" d="M220.7,48.2c-4.9,0-8.1-3-8.1-8.4V0.7h7.9v38.2c0,1.7,0.8,2.6,2.4,2.6h4.5l-3.4,6.7H220.7z"/>
			<path class="st0" d="M244.9,48.2c-10.6,0-16.4-7.9-16.4-17.8c0-9.7,6.1-17.9,17-17.9s17,7.3,17,18.2v3.6h-25.8
				c0.6,4.5,4.1,7.3,8.4,7.3h15.3l-3.4,6.7h-12.1V48.2z M254.5,27.7c-0.4-5.4-3.4-8.4-8.9-8.4c-5.2,0-8.8,3.7-9,8.4H254.5z"/>
			<path class="st0" d="M267.5,48.2V25.4c0-6.7,4.4-12,12.2-12h9.7l-3.5,6.9h-5.3c-3.2,0-5.2,2.1-5.2,5.3v22.6
				C275.4,48.2,267.5,48.2,267.5,48.2z"/>
		</g>
		<g>
			<path class="st0" d="M57.9,30.1h8.9v8.3c-1.7,0.6-4.9,1.3-7.9,1.3c-9.9,0-13.2-5-13.2-15.2c0-9.7,3.1-15.5,13-15.5
				c5.5,0,8.6,1.7,11.2,5l6.8-6.3C72.6,1.8,65.3,0,58.5,0C43.1,0,35,8.4,35,24.4c0,15.9,7.3,24.5,23.4,24.5c7.3,0,14.6-1.9,18.5-4.6
				v-23h-19V30.1z"/>
			<polygon class="st0" points="11,0.7 0,0.7 0,48.2 33.7,48.2 33.7,39 11,39 			"/>
		</g>
	</g>
	<g>
		<g>
			<g>
				<path class="st0" d="M459.9,28.3h6.5l-1.5,3h-4.3c-4.3,0-6.5,2.5-6.5,6.9s2.2,6.9,6.5,6.9h5.8l-1.5,3H460
					c-5.2-0.1-9.3-3.6-9.3-10C450.5,31.9,454.7,28.3,459.9,28.3z"/>
				<path class="st0" d="M474.9,33.2c4.8,0,7.6,3.1,7.6,7.7s-2.7,7.7-7.6,7.7c-4.8,0-7.6-3.1-7.6-7.7
					C467.3,36.4,470.1,33.2,474.9,33.2z M474.9,45.7c2.8,0,4.3-1.8,4.3-4.8s-1.4-4.7-4.3-4.7c-2.8,0-4.2,1.8-4.2,4.7
					C470.6,43.9,472.1,45.7,474.9,45.7z"/>
				<path class="st0" d="M488,48.2c-2.1,0-3.4-1.3-3.4-3.5V28.3h3.3v16c0,0.7,0.3,1.1,1,1.1h1.9l-1.4,2.8
					C489.4,48.2,488,48.2,488,48.2z"/>
				<path class="st0" d="M495.8,48.2c-2.1,0-3.4-1.3-3.4-3.5V28.3h3.3v16c0,0.7,0.3,1.1,1,1.1h1.9l-1.4,2.8
					C497.2,48.2,495.8,48.2,495.8,48.2z"/>
				<path class="st0" d="M506.1,48.2c-4.4,0-6.9-3.3-6.9-7.5c0-4.1,2.6-7.5,7.2-7.5s7.1,3.1,7.1,7.6v1.5h-10.8c0.2,1.9,1.7,3,3.5,3
					h6.4l-1.4,2.8h-5.1V48.2z M510.1,39.6c-0.2-2.3-1.4-3.5-3.7-3.5c-2.2,0-3.7,1.5-3.8,3.5H510.1z"/>
				<path class="st0" d="M522.7,48.2c-4.1,0-7.2-2.6-7.2-7.3s3.1-7.3,7.2-7.3h5l-1.4,2.9h-3.2c-2.7,0-4.1,1.8-4.1,4.4
					c0,2.6,1.4,4.4,4.1,4.4h4.7l-1.4,2.9C526.4,48.2,522.7,48.2,522.7,48.2z"/>
				<path class="st0" d="M534.6,48.2c-3.3,0-4.9-1.6-4.9-4.8V29.2h3.3v4.4h5.7l-1.4,2.9H533v6.9c0,1.3,0.7,2,1.9,2h4l-1.4,2.8
					C537.5,48.2,534.6,48.2,534.6,48.2z"/>
				<path class="st0" d="M540.6,31.2v-2.9h3.3v2.9H540.6z M540.6,48.2V33.6h3.3v14.6C543.9,48.2,540.6,48.2,540.6,48.2z"/>
				<path class="st0" d="M553.6,33.2c4.8,0,7.6,3.1,7.6,7.7s-2.7,7.7-7.6,7.7c-4.8,0-7.6-3.1-7.6-7.7
					C546.1,36.4,548.8,33.2,553.6,33.2z M553.6,45.7c2.8,0,4.2-1.8,4.2-4.8s-1.4-4.7-4.2-4.7s-4.3,1.8-4.3,4.7
					C549.4,43.9,550.8,45.7,553.6,45.7z"/>
				<path class="st0" d="M572.9,48.2v-9.7c0-1.4-0.6-2.1-1.9-2.1h-4.3v11.7h-3.3V33.6h8.3c3,0,4.6,1.5,4.6,4.8v9.8
					C576.3,48.2,572.9,48.2,572.9,48.2z"/>
			</g>
			<g>
				<g>
					<path class="st0" d="M324.3,31.7c0-10.2,5.9-17.5,16.7-17.5c10.8,0,16.8,7.3,16.8,17.5c0,10.1-6,17.3-16.8,17.3
						S324.3,41.8,324.3,31.7z M330.2,31.7c0,7.7,4.4,12.2,10.8,12.2c6.6,0,10.9-4.5,10.9-12.2c0-7.9-4.3-12.4-10.9-12.4
						C334.5,19.3,330.2,23.8,330.2,31.7z"/>
					<path class="st0" d="M362.5,48.2V15h5.5v8.9h4.7c6.7,0,11.8,4.4,11.8,12.2s-5.1,12.2-11.8,12.2L362.5,48.2L362.5,48.2z
						 M368.1,43.5h4.1c4.5,0,6.8-3,6.8-7.4c0-4.5-2.3-7.4-6.8-7.4h-4.1V43.5z"/>
					<path class="st0" d="M382.5,56.8l2.5-4.9h1.5c1.8,0,2.7-1.1,2.7-3.3V23.9h5.6v25c0,5.1-2.8,7.9-7.7,7.9
						C387.1,56.8,382.5,56.8,382.5,56.8z M389.2,21.4l5.3-6.4h5.5l-5.3,6.4H389.2z"/>
					<path class="st0" d="M410.8,48.2c-7.4,0-11.5-5.5-11.5-12.5c0-6.8,4.3-12.5,11.9-12.5c7.7,0,11.9,5.1,11.9,12.7v2.5H405
						c0.4,3.1,2.9,5.1,5.9,5.1h10.7l-2.4,4.7H410.8z M417.5,33.9c-0.3-3.8-2.4-5.9-6.2-5.9c-3.6,0-6.2,2.6-6.3,5.9H417.5z"/>
					<path class="st0" d="M434.9,48.2c-5.4,0-8.2-2.7-8.2-8.1V16.5h5.6v7.4h9.6l-2.4,4.8h-7.2v11.5c0,2.2,1.1,3.3,3.1,3.3h6.7
						l-2.4,4.7H434.9z"/>
				</g>
			</g>
		</g>
		<rect x="304.1" y="14.1" class="st0" width="2.1" height="34.5"/>
	</g>
</g>
</svg>
