<?xml version="1.0" encoding="utf-8"?>
<!-- Generator: Adobe Illustrator 26.5.3, SVG Export Plug-In . SVG Version: 6.00 Build 0)  -->
<svg version="1.1" id="Layer_1" xmlns="http://www.w3.org/2000/svg" xmlns:xlink="http://www.w3.org/1999/xlink" x="0px" y="0px"
	 width="424.1px" height="52.8px" viewBox="0 0 424.1 52.8" style="enable-background:new 0 0 424.1 52.8;" xml:space="preserve">
<g>
	<g>
		<path d="M401.2,40.7c-1.3,0.6-2.9,1.1-4.7,1.4c-1.8,0.3-3.7,0.5-5.7,0.5c-4.7,0-8.1-1.3-10.3-3.9c-2.2-2.6-3.3-6.3-3.3-11.2
			c0-2.6,0.3-4.8,1-6.7c0.6-1.9,1.6-3.4,2.8-4.7c1.2-1.2,2.7-2.2,4.4-2.8c1.7-0.6,3.7-0.9,5.8-0.9c2.1,0,4,0.3,5.8,1
			c1.7,0.6,3.1,1.7,4.3,3l-2.8,2.5c-0.8-0.9-1.8-1.6-2.9-2.1c-1.1-0.5-2.5-0.8-4.2-0.8c-3.2,0-5.6,1-7.1,3c-1.5,2-2.2,4.9-2.2,8.8
			c0,3.6,0.7,6.3,2.2,8.1c1.5,1.8,3.8,2.7,6.8,2.7c1.4,0,2.6-0.1,3.6-0.3c0.7-0.1,1.4-0.3,2-0.4v-7.8H390v-3.6h11.2V40.7z"/>
		<path d="M413.8,42.6c-1.8,0-3.3-0.2-4.5-0.7c-1.2-0.5-2.1-1.2-2.8-2.1c-0.7-0.9-1.2-2-1.5-3.4c-0.3-1.3-0.4-2.8-0.4-4.5
			c0-3.6,0.8-6.2,2.4-7.9c1.6-1.7,4.2-2.6,7.8-2.6c1.8,0,3.2,0.2,4.5,0.7c1.2,0.5,2.2,1.2,2.9,2.1c0.7,0.9,1.2,2,1.5,3.4
			c0.3,1.3,0.5,2.8,0.5,4.5c0,3.6-0.8,6.2-2.5,7.9C420,41.8,417.4,42.6,413.8,42.6z M413.8,39.4c1.1,0,2-0.2,2.7-0.5
			c0.7-0.3,1.3-0.8,1.8-1.4c0.4-0.6,0.7-1.4,0.9-2.4c0.2-0.9,0.3-2.1,0.3-3.3c0-1-0.1-1.9-0.2-2.8c-0.1-0.9-0.4-1.7-0.7-2.3
			c-0.4-0.7-0.8-1.2-1.4-1.6c-0.6-0.4-1.4-0.6-2.3-0.6c-1.1,0-2,0.2-2.7,0.5c-0.7,0.3-1.3,0.8-1.7,1.5c-0.4,0.7-0.7,1.5-0.9,2.4
			c-0.2,1-0.3,2.1-0.3,3.3c0,1,0.1,1.9,0.2,2.8c0.1,0.9,0.4,1.6,0.7,2.2c0.3,0.6,0.8,1.1,1.4,1.5C412.1,39.2,412.9,39.4,413.8,39.4z
			"/>
	</g>
	<g>
		<g>
			<polygon points="9.6,0.6 0,0.6 0,42.2 29.5,42.2 29.5,34.1 9.6,34.1 			"/>
			<path d="M50.6,26.3h7.8v7.3c-1.5,0.5-4.3,1.1-6.9,1.1c-8.6,0-11.5-4.4-11.5-13.3c0-8.5,2.7-13.5,11.4-13.5c4.8,0,7.5,1.5,9.8,4.4
				l6-5.5c-3.6-5.2-10-6.8-16-6.8C37.7,0,30.6,7.3,30.6,21.3c0,13.9,6.4,21.5,20.4,21.5c6.4,0,12.7-1.6,16.2-4V18.6H50.6V26.3z"/>
		</g>
		<g>
			<path d="M123.5,0.6l-3.2,6.3h-15.9c-3,0-4.6,2.1-4.6,4.4c0,2.2,1,4.1,3.6,4.9l12.5,3.7c6.3,1.9,8.8,6.1,8.8,10.8
				c0,6.7-3.9,11.5-11.8,11.5H92.3l3.2-6.3h16.7c3,0,5.1-1.5,5.1-4.6c0-2.4-1-4.2-3.5-4.9l-13.2-3.8c-5.2-1.5-8.5-5.3-8.5-10.8
				c0.3-5.9,4.3-11.2,12.1-11.2H123.5z"/>
			<path d="M140.4,42.2c-6.8,0-10.2-3.4-10.2-10.1V2.5h6.9v9.2h11.9l-2.9,6h-9v14.3c0,2.8,1.4,4.2,3.8,4.2h8.3l-3,5.9H140.4z"/>
			<path d="M160.9,42.2c-6.3,0-9.7-4.1-9.7-9.2c0-5.2,3.4-9.2,9.7-9.2h11.2v-2c0-2.8-1.3-4.2-4.2-4.2h-14.4l2.9-5.8h11.5
				c7.2,0,11,3.6,11,10.1v20.3H160.9z M161.5,29.4c-2.2,0-3.3,1.7-3.3,3.5c0,1.9,1.1,3.5,3.2,3.5h10.7v-7H161.5z"/>
			<path d="M205.3,42.2V22c0-2.8-1.2-4.3-3.9-4.3h-9v24.4h-6.9V11.8h17.3c6.2,0,9.6,3.2,9.6,10.1v20.3H205.3z"/>
			<path d="M218.7,42.2V0.6h6.9v11.2h5.9c8.3,0,14.7,5.5,14.7,15.2c0,9.7-6.4,15.2-14.7,15.2H218.7z M225.7,36.3h5.1
				c5.6,0,8.5-3.7,8.5-9.3c0-5.6-2.8-9.3-8.5-9.3h-5.1V36.3z"/>
			<path d="M256.2,52.8l4.4-10.6l-13.1-30.4h7.4l9.2,22.4l8.8-22.4h7.2l-17.1,41H256.2z"/>
			<path d="M327.9,0.6v41.6h-7.1V12.5l-11.2,29.6h-6.3l-11.2-29.6v29.6h-7.1V0.6h9.2l12.2,32.3l12.2-32.3H327.9z"/>
			<path d="M334.4,42.2V0.6h30.1l-3.2,6.3h-19.8v11.3h20.2l-3.1,6.1h-17.1v11.6h23.2l-3.2,6.2H334.4z"/>
		</g>
	</g>
</g>
</svg>
