<?xml version="1.0" encoding="utf-8"?>
<!-- Generator: Adobe Illustrator 16.0.0, SVG Export Plug-In . SVG Version: 6.00 Build 0)  -->
<!DOCTYPE svg PUBLIC "-//W3C//DTD SVG 1.1//EN" "http://www.w3.org/Graphics/SVG/1.1/DTD/svg11.dtd">
<svg version="1.1" id="Layer_1" xmlns="http://www.w3.org/2000/svg" xmlns:xlink="http://www.w3.org/1999/xlink" x="0px" y="0px"
	 width="217.217px" height="19.53px" viewBox="0 0 217.217 19.53" enable-background="new 0 0 217.217 19.53" xml:space="preserve">
<path d="M19.268,10.834h2.976v2.76c-0.552,0.208-1.62,0.422-2.636,0.422c-3.286,0-4.386-1.676-4.386-5.066
	c0-3.242,1.038-5.142,4.332-5.142c1.829,0,2.87,0.572,3.733,1.666l2.267-2.081c-1.378-1.985-3.804-2.59-6.076-2.59
	c-5.123,0-7.809,2.791-7.809,8.12c0,5.297,2.429,8.174,7.782,8.174c2.448,0,4.852-0.632,6.157-1.542V7.883h-6.34V10.834z"/>
<polygon points="3.661,1.038 0,1.038 0,16.854 11.226,16.854 11.226,13.78 3.661,13.78 "/>
<polygon points="40.865,16.847 40.865,4.514 35.096,4.514 35.096,1.038 50.865,1.038 50.865,4.514 45.092,4.514 45.092,16.847 "/>
<path d="M76.307,13.611c-2.575,0-4.665-2.091-4.665-4.661c0-2.586,2.09-4.674,4.665-4.674c2.582,0,4.669,2.088,4.669,4.674
	C80.976,11.52,78.889,13.611,76.307,13.611 M76.307,0c-4.937,0-8.939,4.008-8.939,8.95c0,4.925,4.002,8.929,8.939,8.929
	c4.934,0,8.931-4.004,8.931-8.929C85.238,4.008,81.241,0,76.307,0"/>
<path d="M60.103,7.91h-3.657V4.333h3.469c1.222,0,2.208,0.535,2.208,1.707C62.123,7.241,61.415,7.91,60.103,7.91 M66.291,13.28
	c-0.137-1.488-0.641-3.343-2.393-3.778c-0.07-0.01-0.143-0.023-0.143-0.023l0.126-0.04c0.321-0.11,0.613-0.268,0.875-0.442
	c1.148-0.793,1.72-2.124,1.72-3.509c0-3.193-2.909-4.451-5.855-4.451h-8.53v15.806h4.355v-5.748h3.195
	c2.039,0,2.319,1.64,2.434,3.229c0.048,0.438,0.119,1.983,0.494,2.519h4.421C66.408,16.271,66.342,13.95,66.291,13.28"/>
<polygon points="103.818,16.844 103.818,16.844 103.818,1.038 97.585,1.038 95.171,10.834 92.769,1.038 86.526,1.038 86.526,16.844 
	90.62,16.844 90.62,5.739 93.63,16.844 96.72,16.844 99.734,5.739 99.734,16.844 "/>
<polygon points="122.557,16.844 122.557,16.844 122.557,1.038 116.317,1.038 113.91,10.834 111.499,1.038 105.265,1.038 
	105.265,16.844 109.348,16.844 109.348,5.739 112.368,16.844 115.458,16.844 118.469,5.739 118.469,16.844 "/>
<path d="M177.824,13.391c0,0.378,0.05,0.713,0.146,1.018c0.096,0.301,0.24,0.565,0.434,0.775c0.193,0.219,0.438,0.389,0.729,0.506
	c0.295,0.117,0.635,0.178,1.02,0.178h1.757l-0.446,0.877h-1.559c-0.434,0-0.839-0.078-1.221-0.222
	c-0.379-0.147-0.713-0.364-0.996-0.653c-0.285-0.287-0.51-0.639-0.672-1.053c-0.161-0.419-0.246-0.887-0.246-1.426
	c0-0.512,0.082-0.977,0.238-1.393c0.16-0.414,0.381-0.769,0.656-1.053c0.278-0.295,0.611-0.513,0.994-0.67
	c0.383-0.154,0.797-0.231,1.246-0.231h2.005l-0.446,0.877h-1.311c-0.379,0-0.712,0.063-1.004,0.18
	c-0.287,0.124-0.532,0.288-0.727,0.506c-0.201,0.221-0.344,0.475-0.449,0.783C177.875,12.692,177.824,13.03,177.824,13.391"/>
<path d="M184.719,12.547c-0.483,0-0.853,0.154-1.108,0.473c-0.253,0.311-0.379,0.736-0.379,1.271c0,0.519,0.126,0.937,0.379,1.258
	c0.256,0.32,0.625,0.479,1.108,0.479c0.24,0,0.457-0.047,0.637-0.141c0.188-0.098,0.345-0.219,0.467-0.371
	c0.128-0.158,0.221-0.346,0.287-0.557c0.064-0.211,0.1-0.435,0.1-0.668c0-0.535-0.129-0.961-0.387-1.271
	C185.57,12.702,185.202,12.547,184.719,12.547 M184.719,16.874c-0.387,0-0.732-0.057-1.034-0.181
	c-0.306-0.127-0.56-0.304-0.769-0.532c-0.211-0.224-0.373-0.494-0.482-0.809c-0.108-0.318-0.165-0.676-0.165-1.061
	c0-0.389,0.057-0.746,0.165-1.064c0.109-0.318,0.271-0.589,0.482-0.807c0.209-0.228,0.463-0.401,0.769-0.525
	c0.302-0.124,0.647-0.189,1.034-0.189c0.386,0,0.729,0.065,1.035,0.189c0.301,0.124,0.56,0.298,0.768,0.525
	c0.211,0.218,0.371,0.488,0.48,0.807c0.111,0.318,0.166,0.676,0.166,1.064c0,0.395-0.055,0.75-0.166,1.066
	c-0.109,0.318-0.27,0.582-0.48,0.813c-0.208,0.222-0.467,0.396-0.768,0.522C185.448,16.817,185.105,16.874,184.719,16.874"/>
<path d="M189.073,16.743c-0.771,0-1.162-0.397-1.162-1.205v-5.493h0.946v5.493c0,0.125,0.021,0.215,0.069,0.278
	c0.05,0.07,0.129,0.097,0.246,0.097h0.582l-0.424,0.83H189.073z"/>
<path d="M191.603,16.743c-0.771,0-1.158-0.397-1.158-1.205v-5.493h0.94v5.493c0,0.125,0.027,0.215,0.076,0.278
	c0.047,0.07,0.129,0.097,0.246,0.097h0.577l-0.422,0.83H191.603z"/>
<path d="M194.849,12.557c-0.442,0-0.772,0.121-0.996,0.367c-0.224,0.256-0.347,0.587-0.369,1.008h2.679
	c-0.02-0.421-0.136-0.752-0.341-1.008C195.616,12.678,195.29,12.557,194.849,12.557 M196.432,16.743h-1.652
	c-0.39,0-0.723-0.07-1.01-0.203c-0.286-0.135-0.525-0.312-0.711-0.543c-0.193-0.228-0.331-0.492-0.428-0.795
	c-0.09-0.303-0.141-0.631-0.141-0.972s0.051-0.669,0.141-0.978c0.097-0.301,0.237-0.574,0.429-0.799
	c0.192-0.228,0.438-0.408,0.735-0.543c0.295-0.133,0.647-0.207,1.054-0.207c0.433,0,0.8,0.074,1.092,0.207
	c0.294,0.135,0.526,0.315,0.709,0.543c0.179,0.225,0.304,0.498,0.382,0.799c0.073,0.309,0.114,0.637,0.114,0.978v0.524h-3.627
	c0.051,0.373,0.192,0.664,0.421,0.861c0.225,0.2,0.523,0.297,0.889,0.297h2.016L196.432,16.743z"/>
<path d="M201.247,16.743h-1.15c-0.344,0-0.66-0.054-0.949-0.166c-0.297-0.107-0.547-0.271-0.76-0.486
	c-0.207-0.215-0.372-0.471-0.494-0.77c-0.119-0.301-0.182-0.646-0.182-1.031c0-0.373,0.063-0.715,0.188-1.02
	c0.123-0.301,0.293-0.559,0.51-0.777c0.22-0.213,0.47-0.373,0.761-0.484c0.289-0.11,0.596-0.168,0.926-0.168h1.576l-0.426,0.828
	h-1.074c-0.226,0-0.435,0.043-0.615,0.117c-0.184,0.08-0.34,0.196-0.471,0.34c-0.131,0.145-0.234,0.322-0.305,0.52
	c-0.072,0.197-0.107,0.418-0.107,0.645c0,0.476,0.129,0.865,0.392,1.168c0.26,0.306,0.63,0.455,1.106,0.455h1.5L201.247,16.743z"/>
<path d="M204.773,16.743h-0.952c-0.497,0-0.881-0.141-1.163-0.425c-0.278-0.28-0.418-0.679-0.418-1.2v-4.752h0.942v1.475h1.982
	l-0.412,0.828h-1.57v2.481c0,0.503,0.23,0.753,0.693,0.753h1.32L204.773,16.743z"/>
<path d="M205.877,16.743h0.94v-4.9h-0.94V16.743z M205.877,10.891h0.94v-0.846h-0.94V10.891z"/>
<path d="M209.827,12.547c-0.482,0-0.852,0.154-1.103,0.473c-0.259,0.311-0.384,0.736-0.384,1.271c0,0.519,0.125,0.937,0.384,1.258
	c0.251,0.32,0.62,0.479,1.103,0.479c0.242,0,0.454-0.047,0.641-0.141c0.186-0.098,0.343-0.219,0.467-0.371
	c0.121-0.158,0.215-0.346,0.283-0.557c0.063-0.211,0.098-0.435,0.098-0.668c0-0.535-0.127-0.961-0.381-1.271
	C210.678,12.702,210.309,12.547,209.827,12.547 M209.827,16.874c-0.386,0-0.73-0.057-1.033-0.181
	c-0.302-0.127-0.56-0.304-0.77-0.532c-0.21-0.224-0.369-0.494-0.48-0.809c-0.111-0.318-0.168-0.676-0.168-1.061
	c0-0.389,0.057-0.746,0.168-1.064s0.271-0.589,0.48-0.807c0.21-0.228,0.468-0.401,0.77-0.525c0.303-0.124,0.647-0.189,1.033-0.189
	c0.387,0,0.73,0.065,1.032,0.189c0.306,0.124,0.562,0.298,0.771,0.525c0.211,0.218,0.373,0.488,0.483,0.807
	c0.111,0.318,0.162,0.676,0.162,1.064c0,0.395-0.051,0.75-0.162,1.066c-0.11,0.318-0.272,0.582-0.483,0.813
	c-0.209,0.222-0.465,0.396-0.771,0.522C210.557,16.817,210.213,16.874,209.827,16.874"/>
<path d="M215.565,11.84c0.475,0,0.867,0.145,1.175,0.433c0.312,0.287,0.47,0.709,0.478,1.265v3.205h-0.938v-3.222v-0.015
	c-0.019-0.303-0.093-0.514-0.229-0.629c-0.14-0.116-0.319-0.187-0.535-0.2h-1.563v4.065h-0.928V11.84H215.565z"/>
<path d="M141.312,15.497c0.554,0,1.06-0.098,1.519-0.285c0.457-0.19,0.854-0.473,1.186-0.83c0.334-0.364,0.592-0.807,0.77-1.336
	c0.182-0.521,0.272-1.123,0.272-1.803c0-0.688-0.091-1.297-0.272-1.83c-0.178-0.529-0.434-0.974-0.762-1.335
	c-0.326-0.362-0.725-0.639-1.186-0.827c-0.465-0.187-0.973-0.277-1.526-0.277c-0.565,0-1.079,0.1-1.533,0.287
	c-0.456,0.188-0.849,0.469-1.177,0.83c-0.328,0.361-0.583,0.807-0.764,1.342c-0.182,0.529-0.27,1.131-0.27,1.81
	c0,0.68,0.088,1.289,0.27,1.817c0.181,0.528,0.437,0.978,0.771,1.338c0.334,0.358,0.729,0.636,1.186,0.82
	S140.758,15.497,141.312,15.497 M146.79,11.243c0,0.846-0.123,1.623-0.367,2.322c-0.242,0.703-0.601,1.305-1.069,1.813
	c-0.468,0.51-1.042,0.902-1.722,1.183c-0.676,0.274-1.448,0.411-2.319,0.411c-0.879,0-1.661-0.137-2.341-0.411
	c-0.676-0.28-1.25-0.673-1.713-1.171c-0.461-0.506-0.811-1.107-1.055-1.801c-0.246-0.707-0.367-1.482-0.367-2.346
	c0-0.856,0.121-1.643,0.367-2.349c0.244-0.703,0.594-1.311,1.055-1.817c0.463-0.508,1.037-0.9,1.713-1.178
	c0.68-0.281,1.462-0.418,2.341-0.418c0.882,0,1.659,0.137,2.34,0.418c0.679,0.278,1.247,0.67,1.708,1.178
	c0.465,0.506,0.82,1.114,1.063,1.817C146.667,9.6,146.79,10.386,146.79,11.243"/>
<path d="M149.903,15.362h1.406c0.375,0,0.712-0.07,1-0.212c0.294-0.14,0.55-0.334,0.755-0.579c0.212-0.24,0.37-0.525,0.474-0.853
	c0.109-0.328,0.166-0.673,0.166-1.034s-0.05-0.706-0.156-1.027c-0.1-0.32-0.252-0.602-0.455-0.843
	c-0.205-0.237-0.453-0.415-0.754-0.56c-0.301-0.146-0.642-0.213-1.029-0.213h-1.406V15.362z M149.903,5.735v2.951h1.525
	c0.558,0,1.07,0.094,1.545,0.278c0.475,0.187,0.884,0.455,1.219,0.803c0.34,0.351,0.607,0.772,0.797,1.261
	c0.195,0.495,0.29,1.045,0.29,1.656c0,0.633-0.099,1.197-0.299,1.697c-0.197,0.494-0.466,0.916-0.812,1.261
	c-0.344,0.345-0.752,0.608-1.22,0.793c-0.47,0.187-0.978,0.285-1.521,0.285h-3.084V5.735H149.903z"/>
<path d="M157.125,8.686v8.268c0,0.371-0.076,0.67-0.234,0.887c-0.156,0.221-0.401,0.334-0.729,0.334h-0.132h-0.067h-0.31h-0.017
	h-0.086l-0.696,1.355h0.782h0.017h0.31h0.067h0.285c0.336,0,0.651-0.057,0.938-0.18c0.287-0.118,0.535-0.285,0.748-0.506
	c0.209-0.221,0.373-0.488,0.491-0.807c0.118-0.314,0.175-0.676,0.175-1.084V8.686H157.125z"/>
<path d="M164.032,9.854c-0.722,0-1.273,0.204-1.636,0.609c-0.367,0.404-0.567,0.957-0.603,1.646h4.39
	c-0.038-0.688-0.222-1.241-0.56-1.646C165.286,10.058,164.756,9.854,164.032,9.854 M166.622,16.72h-2.709
	c-0.634,0-1.186-0.114-1.654-0.335c-0.467-0.215-0.857-0.516-1.164-0.891c-0.316-0.367-0.549-0.806-0.7-1.305
	c-0.152-0.494-0.229-1.023-0.229-1.592c0-0.563,0.077-1.098,0.229-1.6c0.151-0.502,0.387-0.94,0.706-1.315
	c0.314-0.374,0.715-0.672,1.203-0.883c0.484-0.224,1.061-0.331,1.729-0.331c0.713,0,1.305,0.107,1.79,0.331
	c0.479,0.211,0.864,0.509,1.157,0.883c0.293,0.375,0.502,0.813,0.631,1.315c0.122,0.502,0.184,1.037,0.184,1.6v0.87h-5.949
	c0.091,0.604,0.32,1.077,0.695,1.401c0.371,0.332,0.857,0.492,1.459,0.492h3.305L166.622,16.72z"/>
<path d="M173.26,16.72h-1.562c-0.81,0-1.446-0.238-1.903-0.693c-0.459-0.472-0.689-1.124-0.689-1.967V6.264h1.544v2.422h3.254
	l-0.677,1.356h-2.577v4.061c0,0.827,0.379,1.237,1.135,1.237h2.171L173.26,16.72z"/>
<polygon points="160.401,5.745 158.874,5.745 157.125,7.876 158.65,7.876 "/>
<rect x="129.109" y="5.43" width="0.694" height="11.533"/>
</svg>
