<?xml version="1.0" encoding="utf-8"?>
<!-- Generator: Adobe Illustrator 26.5.3, SVG Export Plug-In . SVG Version: 6.00 Build 0)  -->
<svg version="1.1" id="Layer_1" xmlns="http://www.w3.org/2000/svg" xmlns:xlink="http://www.w3.org/1999/xlink" x="0px" y="0px"
	 width="331.5px" height="28.5px" viewBox="0 0 331.5 28.5" style="enable-background:new 0 0 331.5 28.5;" xml:space="preserve">
<g>
	<g>
		<g>
			<g>
				<path d="M59.8,24.4H54l-0.7-24h4.1l0.4,20l9.2-20h4.1l1,20l8.6-20h4.1l-10.6,24h-5.8L67.8,6.7L59.8,24.4z"/>
				<path d="M97.2,24.4l2.1-10.2H88.8l-2.1,10.2h-4.1l4.9-24h4.1l-2.1,10.2H100l2.1-10.2h4.1l-4.9,24H97.2z"/>
				<path d="M106,24.4l4.9-24h4.1l-4.9,24H106z"/>
				<path d="M136.7,0.4L134.1,4h-9.2c-1.7,0-2.9,1.2-3.2,2.5c-0.3,1.3,0.1,2.4,1.5,2.8l6.8,2.1c3.4,1.1,4.4,3.5,3.8,6.3
					c-0.8,3.9-3.6,6.6-8.2,6.6h-11.9l2.6-3.6h9.7c1.7,0,3.1-0.9,3.5-2.6c0.3-1.4-0.1-2.4-1.4-2.8l-7.2-2.2c-2.8-0.9-4.3-3.1-3.6-6.2
					c0.9-3.4,3.8-6.4,8.3-6.4H136.7z"/>
				<path d="M142.9,10.5h11.7l-2.5,3.5h-9.9l-1.4,6.7h13.4l-2.6,3.6H136l4.9-24h17.4L155.7,4h-11.4L142.9,10.5z"/>
				<path d="M170.9,24.4l-6.7-18.4l-3.8,18.4h-4.1l4.9-24h5.3l6.6,18.6l3.8-18.6h4.1l-4.9,24H170.9z"/>
			</g>
		</g>
		<g>
			<path d="M29.3,15.2h4.5v4.2c-0.8,0.3-2.5,0.6-4,0.6c-5,0-6.7-2.5-6.7-7.7c0-4.9,1.6-7.8,6.6-7.8c2.8,0,4.4,0.9,5.7,2.5l3.4-3.2
				C36.7,0.9,33,0,29.6,0c-7.8,0-11.9,4.2-11.9,12.3c0,8,3.7,12.4,11.8,12.4c3.7,0,7.4-1,9.3-2.3V10.7h-9.6V15.2z"/>
			<polygon points="5.6,0.4 0,0.4 0,24.4 17,24.4 17,19.7 5.6,19.7 			"/>
		</g>
	</g>
	<g>
		<g>
			<g>
				<path d="M271.3,13.8h3.4l-0.8,1.6h-2.2c-2.2,0-3.3,1.3-3.3,3.6c0,2.3,1.1,3.6,3.3,3.6h3l-0.8,1.6h-2.6c-2.7,0-4.8-1.9-4.8-5.2
					C266.5,15.6,268.6,13.8,271.3,13.8z"/>
				<path d="M279.1,16.3c2.5,0,3.9,1.6,3.9,4s-1.4,4-3.9,4c-2.5,0-3.9-1.6-3.9-4S276.6,16.3,279.1,16.3z M279.1,22.8
					c1.5,0,2.2-0.9,2.2-2.5c0-1.5-0.8-2.5-2.2-2.5c-1.4,0-2.2,0.9-2.2,2.5C276.9,21.9,277.6,22.8,279.1,22.8z"/>
				<path d="M285.9,24.1c-1.1,0-1.8-0.7-1.8-1.8v-8.5h1.7v8.3c0,0.4,0.2,0.6,0.5,0.6h1l-0.7,1.5H285.9z"/>
				<path d="M289.9,24.1c-1.1,0-1.8-0.7-1.8-1.8v-8.5h1.7v8.3c0,0.4,0.2,0.6,0.5,0.6h1l-0.7,1.5H289.9z"/>
				<path d="M295.3,24.1c-2.3,0-3.6-1.7-3.6-3.9c0-2.1,1.3-3.9,3.7-3.9c2.4,0,3.7,1.6,3.7,4v0.8h-5.6c0.1,1,0.9,1.6,1.8,1.6h3.3
					l-0.7,1.5H295.3z M297.3,19.6c-0.1-1.2-0.7-1.8-1.9-1.8c-1.1,0-1.9,0.8-1.9,1.8H297.3z"/>
				<path d="M303.8,24.1c-2.1,0-3.7-1.3-3.7-3.8c0-2.4,1.6-3.8,3.7-3.8h2.6l-0.8,1.5H304c-1.4,0-2.1,0.9-2.1,2.3
					c0,1.4,0.7,2.3,2.1,2.3h2.4l-0.7,1.5H303.8z"/>
				<path d="M310,24.1c-1.7,0-2.5-0.8-2.5-2.5v-7.4h1.7v2.3h3l-0.7,1.5h-2.2v3.6c0,0.7,0.3,1,1,1h2.1l-0.7,1.5H310z"/>
				<path d="M313.1,15.3v-1.5h1.7v1.5H313.1z M313.1,24.1v-7.6h1.7v7.6H313.1z"/>
				<path d="M319.9,16.3c2.5,0,3.9,1.6,3.9,4s-1.4,4-3.9,4c-2.5,0-3.9-1.6-3.9-4S317.4,16.3,319.9,16.3z M319.9,22.8
					c1.5,0,2.2-0.9,2.2-2.5c0-1.5-0.7-2.5-2.2-2.5c-1.4,0-2.2,0.9-2.2,2.5C317.7,21.9,318.4,22.8,319.9,22.8z"/>
				<path d="M329.8,24.1v-5c0-0.7-0.3-1.1-1-1.1h-2.2v6.1h-1.7v-7.6h4.3c1.5,0,2.4,0.8,2.4,2.5v5.1H329.8z"/>
			</g>
			<g>
				<g>
					<path d="M201.1,15.5c0-5.3,3.1-9.1,8.7-9.1c5.6,0,8.7,3.8,8.7,9.1c0,5.2-3.1,9-8.7,9C204.1,24.5,201.1,20.8,201.1,15.5z
						 M204.1,15.5c0,4,2.3,6.3,5.6,6.3c3.4,0,5.6-2.3,5.6-6.3c0-4.1-2.2-6.4-5.6-6.4C206.4,9.1,204.1,11.5,204.1,15.5z"/>
					<path d="M220.9,24.1V6.9h2.9v4.6h2.4c3.5,0,6.1,2.3,6.1,6.3c0,4-2.7,6.3-6.1,6.3H220.9z M223.8,21.7h2.1c2.3,0,3.5-1.5,3.5-3.9
						c0-2.3-1.2-3.9-3.5-3.9h-2.1V21.7z"/>
					<path d="M231.2,28.5l1.3-2.5h0.8c0.9,0,1.4-0.6,1.4-1.7V11.5h2.9v12.9c0,2.6-1.5,4.1-4,4.1H231.2z M234.7,10.2l2.8-3.3h2.9
						l-2.8,3.3H234.7z"/>
					<path d="M245.9,24.1c-3.8,0-5.9-2.9-5.9-6.5c0-3.5,2.2-6.5,6.2-6.5c4,0,6.2,2.7,6.2,6.6V19h-9.4c0.2,1.6,1.5,2.6,3,2.6h5.5
						l-1.2,2.4H245.9z M249.4,16.7c-0.2-2-1.2-3.1-3.2-3.1c-1.9,0-3.2,1.3-3.2,3.1H249.4z"/>
					<path d="M258.4,24.1c-2.8,0-4.2-1.4-4.2-4.2V7.7h2.9v3.8h4.9l-1.2,2.5H257v5.9c0,1.1,0.6,1.7,1.6,1.7h3.5l-1.3,2.5H258.4z"/>
				</g>
			</g>
		</g>
		<rect x="190.6" y="6.5" width="1.1" height="18"/>
	</g>
</g>
</svg>
