<?xml version="1.0" encoding="utf-8"?>
<!-- Generator: Adobe Illustrator 26.5.3, SVG Export Plug-In . SVG Version: 6.00 Build 0)  -->
<svg version="1.1" id="Layer_1" xmlns="http://www.w3.org/2000/svg" xmlns:xlink="http://www.w3.org/1999/xlink" x="0px" y="0px"
	 width="315.6px" height="46.9px" viewBox="0 0 315.6 46.9" style="enable-background:new 0 0 315.6 46.9;" xml:space="preserve">
<g>
	<g>
		<path d="M233.4,20.3l0.2,2c0.9-0.7,1.8-1.2,2.8-1.6c1.8-0.7,3.5-1,5.2-1c1.7,0,3.1,0.2,4.1,0.6c1,0.4,1.8,1,2.4,1.8l0.1,0.2
			c1-0.7,2-1.3,3.1-1.6c1-0.4,1.9-0.6,2.8-0.8c0.9-0.2,1.8-0.2,2.7-0.2c1.6,0,3,0.2,4.1,0.6c1.1,0.4,1.9,1,2.5,1.9
			c0.6,0.8,1,1.8,1.3,3c0.2,1.2,0.3,2.5,0.3,4V46h-5.8V30.3c0-0.9,0-1.7-0.1-2.4c-0.1-0.8-0.2-1.4-0.5-1.9c-0.3-0.5-0.7-1-1.2-1.3
			c-0.5-0.3-1.2-0.5-2.2-0.5c-1,0-2,0.2-2.9,0.4c-0.9,0.3-1.6,0.7-2.3,1.1l-0.6,0.4c0.1,0.9,0.2,1.9,0.2,2.9V46h-5.7V30.3
			c0-0.9,0-1.7-0.1-2.4c-0.1-0.8-0.2-1.4-0.5-1.9c-0.3-0.5-0.7-1-1.2-1.3c-0.5-0.3-1.3-0.5-2.2-0.5c-1,0-2,0.2-2.8,0.4
			c-0.8,0.3-1.6,0.7-2.3,1.1l-0.4,0.3v20h-5.7V27.1l-0.5-6.8H233.4z"/>
		<path d="M270,9.4h5.8v5.2H270V9.4z M270.1,20.3h5.7V46h-5.7V20.3z"/>
		<path d="M286.4,20.3l0.2,2c0.5-0.3,1-0.6,1.5-0.9c0.5-0.3,1.1-0.5,1.7-0.7c2-0.7,3.8-1,5.5-1c1.7,0,3.1,0.2,4.2,0.6
			c1.1,0.4,1.9,1,2.6,1.8c0.6,0.8,1.1,1.8,1.3,3c0.2,1.2,0.4,2.5,0.4,4V46h-5.7V30.3c0-0.9-0.1-1.7-0.2-2.4
			c-0.1-0.8-0.3-1.4-0.6-1.9c-0.3-0.5-0.8-1-1.3-1.3c-0.6-0.3-1.3-0.5-2.3-0.5c-1.1,0-2.1,0.2-3,0.4c-0.9,0.3-1.7,0.7-2.4,1.1
			l-1,0.7V46h-5.7V27.1l-0.5-6.8H286.4z"/>
		<path d="M309.8,9.4h5.8v5.2h-5.8V9.4z M309.8,20.3h5.7V46h-5.7V20.3z"/>
	</g>
	<g>
		<g>
			<g>
				<path d="M110.4,46.3h-6.6c-3.4,0-6.1-1-8-2.9c-1.9-2-2.9-4.7-2.9-8.3V2.2h6.5v10.2h13.7l-2.9,5.7H99.4v17.2
					c0,3.5,1.6,5.2,4.8,5.2h9.1L110.4,46.3z"/>
				<path d="M127.4,0v5.9h-6.5V0H127.4z M127.4,12.4v33.9h-6.5V12.4H127.4z"/>
				<path d="M141.8,0v5.9h-6.5V0H141.8z M141.8,12.4v33.9h-6.5V12.4H141.8z"/>
				<path d="M160.4,46.3c-1.9,0-3.5-0.3-4.9-0.9c-1.4-0.6-2.6-1.4-3.6-2.5c-1-1.1-1.7-2.3-2.2-3.8c-0.5-1.4-0.8-3-0.8-4.6V12.4h6.6
					v22.2c0,1.8,0.4,3.2,1.4,4.3c0.9,1.1,2.2,1.6,3.9,1.6h10.7V12.4h6.6v33.9H160.4z"/>
				<path d="M202.9,12.4c3.3,0,6,1,8.2,3c2.1,2,3.2,4.9,3.3,8.8v22.1h-6.5V24v-0.1c-0.1-2.1-0.6-3.5-1.6-4.4c-1-0.8-2.2-1.3-3.7-1.4
					h-10.8v28.1h-6.4V12.4H202.9z"/>
			</g>
			<g>
				<g>
					<path d="M51.1,30.3H59v7.4c-1.4,0.5-4.3,1.1-7,1.1c-8.7,0-11.7-4.4-11.7-13.4c0-8.6,2.8-13.6,11.5-13.6c4.8,0,7.6,1.5,9.9,4.4
						l6-5.5c-3.7-5.3-10.1-6.9-16.1-6.9C38.1,3.7,31,11.1,31,25.2c0,14.1,6.5,21.7,20.6,21.7c6.5,0,12.9-1.6,16.3-4.1V22.5H51.1
						V30.3z"/>
					<polygon points="9.7,4.3 0,4.3 0,46.3 29.8,46.3 29.8,38.1 9.7,38.1 					"/>
					<polygon points="9.7,4.3 0,4.3 0,46.3 29.8,46.3 29.8,38.1 9.7,38.1 					"/>
				</g>
			</g>
		</g>
	</g>
</g>
</svg>
