<?xml version="1.0" encoding="utf-8"?>
<!-- Generator: Adobe Illustrator 16.0.0, SVG Export Plug-In . SVG Version: 6.00 Build 0)  -->
<!DOCTYPE svg PUBLIC "-//W3C//DTD SVG 1.1//EN" "http://www.w3.org/Graphics/SVG/1.1/DTD/svg11.dtd">
<svg version="1.1" id="Layer_1" xmlns="http://www.w3.org/2000/svg" xmlns:xlink="http://www.w3.org/1999/xlink" x="0px" y="0px"
	 width="64px" height="64px" viewBox="0 0 64 64" enable-background="new 0 0 64 64" xml:space="preserve">
<polygon fill="#FFFFFF" stroke="#000000" stroke-width="2" stroke-linejoin="round" points="44.118,42.185 7.176,57.772 
	22.764,20.83 "/>
<path fill="#CB65AF" stroke="#000000" stroke-width="2" d="M18.288,31.437c0,0,4,9.292,15.223,15.223l-10.632,4.486
	c0,0-4.795-2.795-9.077-9.076L18.288,31.437z"/>
<circle fill="#CB65AF" stroke="#000000" stroke-width="2" cx="26.207" cy="8.975" r="2.93"/>
<circle fill="#CB65AF" stroke="#000000" stroke-width="2" cx="55.974" cy="38.741" r="2.929"/>
<line fill="#CB65AF" stroke="#000000" stroke-width="2" stroke-linecap="round" x1="45.463" y1="19.484" x2="40.399" y2="24.548"/>
<ellipse transform="matrix(0.7071 0.7071 -0.7071 0.7071 32.0737 -14.418)" fill="#FFFFFF" stroke="#000000" stroke-width="2" cx="33.441" cy="31.507" rx="15.1" ry="4.787"/>
<path fill="none" stroke="#000000" stroke-width="2" stroke-linecap="round" d="M33.571,11.045c0,0,3.684,7.366-4.257,15.306"/>
<path fill="none" stroke="#000000" stroke-width="2" stroke-linecap="round" d="M53.902,31.375c0,0-7.365-3.682-15.305,4.258"/>
<path fill="#CB65AF" stroke="#000000" stroke-width="2" stroke-linejoin="round" d="M48.404,8.375l-0.052,0.051
	c1.812,2.493,1.869,6.241,0.208,7.902l0.06,0.059c2.178-1.713,5.408-1.604,7.901,0.208l0.052-0.052
	c-1.953-2.688-1.459-6.708,0.227-8.395C55.114,9.835,51.092,10.328,48.404,8.375z"/>
</svg>
