<svg data-name="02.-Icon/home/service_64" xmlns="http://www.w3.org/2000/svg" width="64" height="64" viewBox="0 0 64 64">
    <path data-name="패스 387" d="M9.906 27.888q-.059-.808-.06-1.634a22.143 22.143 0 0 1 44.286 0q0 .848-.063 1.678" style="stroke:#000;stroke-miterlimit:10;stroke-width:2px;fill:none"/>
    <path data-name="패스 389" d="M50.067 46.056h5.176a4.619 4.619 0 0 0 4.618-4.619v-8.558a4.619 4.619 0 0 0-4.618-4.619h-5.176a1.155 1.155 0 0 0-1.155 1.154V44.9a1.155 1.155 0 0 0 1.155 1.156z" style="fill:#ff8b00;stroke:#000;stroke-miterlimit:10;stroke-width:2px"/>
    <path data-name="패스 391" d="M13.933 46.056H8.757a4.619 4.619 0 0 1-4.619-4.619v-8.558a4.619 4.619 0 0 1 4.619-4.619h5.176a1.154 1.154 0 0 1 1.154 1.154V44.9a1.154 1.154 0 0 1-1.154 1.156z" style="fill:#ff8b00;stroke:#000;stroke-miterlimit:10;stroke-width:2px"/>
    <path data-name="패스 392" d="M54.132 46.58S54.577 56.757 43 59.516a13.234 13.234 0 0 1-3.054.321h-7.4" style="stroke-linecap:round;stroke:#000;stroke-miterlimit:10;stroke-width:2px;fill:none"/>
    <path data-name="패스 393" d="M33.633 36.18a1.644 1.644 0 1 1-1.644-1.644 1.644 1.644 0 0 1 1.644 1.644" style="fill-rule:evenodd"/>
    <path data-name="패스 394" d="M42.978 36.18a1.645 1.645 0 1 1-1.645-1.644 1.644 1.644 0 0 1 1.645 1.644" style="fill-rule:evenodd"/>
    <path data-name="패스 395" d="M24.288 36.18a1.644 1.644 0 1 1-1.644-1.644 1.644 1.644 0 0 1 1.644 1.644" style="fill-rule:evenodd"/>
</svg>
