<svg xmlns="http://www.w3.org/2000/svg" width="64" height="64" viewBox="0 0 64 64">
    <g transform="translate(2.877 11.265)" data-name="02.-Icon/home/delivery_64">
        <path data-name="패스 7443" d="m9.983 20.922-2.555 10a1.573 1.573 0 0 0-.008.815 2.046 2.046 0 0 0 2.037 1.481h3.731a6.23 6.23 0 0 1 11.382 0h12.579c1.167 0 1.778-.7 2.113-1.966L46.55 2.717A2.043 2.043 0 0 0 44.437.752h-29.8" transform="translate(-2.043 -.75)" style="stroke-linecap:round;stroke:#000;stroke-width:2px;fill:#fff;stroke-linejoin:round"/>
        <path data-name="선 196" transform="translate(0 5.888)" style="fill:none;stroke-linecap:round;stroke:#000;stroke-width:2px" d="M0 0h21.001"/>
        <path data-name="선 197" transform="translate(3.74 10.802)" style="fill:none;stroke-linecap:round;stroke:#000;stroke-width:2px" d="M0 0h17.263"/>
        <path data-name="선 198" transform="translate(8.01 15.716)" style="fill:none;stroke-linecap:round;stroke:#000;stroke-width:2px" d="M0 0h12.992"/>
        <path data-name="패스 7444" d="m67.774 23.383-4.965-2.889a1.188 1.188 0 0 1-.55-.735L59.7 9.273a1.183 1.183 0 0 0-1.149-.9h-4.5c-.653 0-1 .49-1.184 1.184L46.76 33.519a1.184 1.184 0 0 0 1.184 1.181h3.517a6.23 6.23 0 0 1 11.373-.014h4.339a1.184 1.184 0 0 0 1.183-1.186v-9.1a1.182 1.182 0 0 0-.582-1.017z" transform="translate(-9.739 -2.24)" style="stroke-linecap:round;stroke:#000;stroke-width:2px;fill:#fff;stroke-linejoin:round"/>
        <path data-name="선 199" transform="translate(40.529 18.116)" style="fill:none;stroke-linecap:round;stroke:#000;stroke-width:2px" d="M12.145 0H0"/>
        <circle data-name="타원 3" cx="6.236" cy="6.236" r="6.236" transform="translate(41.175 28.767)" style="fill:#ebb9dd;stroke:#000;stroke-width:2px"/>
        <circle data-name="타원 4" cx="6.236" cy="6.236" r="6.236" transform="translate(10.599 28.767)" style="fill:#ebb9dd;stroke:#000;stroke-width:2px"/>
    </g>
</svg>
