<svg width="64" height="64" viewBox="0 0 64 64" xmlns="http://www.w3.org/2000/svg">
    <g stroke="#000" fill="none" fill-rule="evenodd">
        <path d="M51 15a2.99 2.99 0 0 1 2.121.879A2.99 2.99 0 0 1 54 18v36a2.99 2.99 0 0 1-.879 2.121A2.99 2.99 0 0 1 51 57H13a2.99 2.99 0 0 1-2.121-.879A2.99 2.99 0 0 1 10 54V18c0-.828.336-1.578.879-2.121A2.99 2.99 0 0 1 13 15z" stroke-width="2" fill="#FFF"/>
        <path d="M54 15c.552 0 1.052.224 1.414.586.362.362.586.862.586 1.414v6H8v-6c0-.552.224-1.052.586-1.414A1.994 1.994 0 0 1 10 15z" stroke-width="2" fill="#FFF"/>
        <path d="M42.76 8.882a3.991 3.991 0 0 0-2.427-1.865 3.977 3.977 0 0 0-3.03.397c-1.373.793-3.048 3.361-5.125 7.578 4.69.31 7.752.143 9.125-.65a3.977 3.977 0 0 0 1.86-2.425 3.991 3.991 0 0 0-.402-3.035zM20.503 8.882a3.991 3.991 0 0 1 2.427-1.865 3.977 3.977 0 0 1 3.03.397c1.373.793 3.049 3.361 5.126 7.578-4.69.31-7.753.143-9.125-.65a3.977 3.977 0 0 1-1.86-2.425 3.991 3.991 0 0 1 .402-3.035z" stroke-width="2"/>
        <path d="M36.077 22.923v34.154h-8.154V22.923h8.154z" stroke-width="1.846" fill="#CB65AF"/>
        <path d="M37.077 14.923v8.154H26.923v-8.154h10.154z" stroke-width="1.846" fill="#CB65AF"/>
    </g>
</svg>
