<svg xmlns="http://www.w3.org/2000/svg" width="64" height="64" viewBox="0 0 64 64">
    <g data-name="02. Icon/home/academy store_32">
        <g data-name="그룹 167" transform="translate(-12 -12)">
            <path data-name="사각형 157" transform="translate(59.767 44.29)" style="fill:#fff" d="M0 0h4.011v14.538H0z"/>
            <path data-name="사각형 158" transform="translate(59.767 44.29)" style="stroke-linecap:round;stroke-linejoin:round;stroke:#000;stroke-width:2px;fill:none" d="M0 0h4.011v14.538H0z"/>
            <path data-name="사각형 159" transform="translate(47.918 44.29)" style="fill:#fff" d="M0 0h4.011v14.538H0z"/>
            <path data-name="사각형 160" transform="translate(47.918 44.29)" style="stroke-linecap:round;stroke-linejoin:round;stroke:#000;stroke-width:2px;fill:none" d="M0 0h4.011v14.538H0z"/>
            <path data-name="사각형 161" transform="translate(36.07 44.29)" style="fill:#fff" d="M0 0h4.011v14.538H0z"/>
            <path data-name="사각형 162" transform="translate(36.07 44.29)" style="stroke-linecap:round;stroke-linejoin:round;stroke:#000;stroke-width:2px;fill:none" d="M0 0h4.011v14.538H0z"/>
            <path data-name="사각형 163" transform="translate(24.222 44.29)" style="fill:#fff" d="M0 0h4.011v14.538H0z"/>
            <path data-name="사각형 164" transform="translate(24.222 44.29)" style="stroke-linecap:round;stroke-linejoin:round;stroke:#000;stroke-width:2px;fill:none" d="M0 0h4.011v14.538H0z"/>
            <path data-name="패스 306" d="M63.948 44.627H59.6a1.5 1.5 0 0 1-1.5-1.5v-2.433h7.351v2.433a1.5 1.5 0 0 1-1.5 1.5" style="fill:#fff"/>
            <path data-name="패스 307" d="M63.948 44.627H59.6a1.5 1.5 0 0 1-1.5-1.5v-2.433h7.351v2.433a1.5 1.5 0 0 1-1.503 1.5z" style="stroke-linecap:round;stroke-linejoin:round;stroke:#000;stroke-width:2px;fill:none"/>
            <path data-name="패스 308" d="M28.4 44.627h-4.348a1.5 1.5 0 0 1-1.5-1.5v-2.433H29.9v2.433a1.5 1.5 0 0 1-1.5 1.5" style="fill:#fff"/>
            <path data-name="패스 309" d="M28.4 44.627h-4.348a1.5 1.5 0 0 1-1.5-1.5v-2.433H29.9v2.433a1.5 1.5 0 0 1-1.5 1.5z" style="stroke-linecap:round;stroke-linejoin:round;stroke:#000;stroke-width:2px;fill:none"/>
            <path data-name="패스 310" d="M40.251 44.627H35.9a1.5 1.5 0 0 1-1.5-1.5v-2.433h7.351v2.433a1.5 1.5 0 0 1-1.5 1.5" style="fill:#fff"/>
            <path data-name="패스 311" d="M40.251 44.627H35.9a1.5 1.5 0 0 1-1.5-1.5v-2.433h7.351v2.433a1.5 1.5 0 0 1-1.5 1.5z" style="stroke-linecap:round;stroke-linejoin:round;stroke:#000;stroke-width:2px;fill:none"/>
            <path data-name="패스 312" d="M52.1 44.627h-4.352a1.5 1.5 0 0 1-1.5-1.5v-2.433H53.6v2.433a1.5 1.5 0 0 1-1.5 1.5" style="fill:#fff"/>
            <path data-name="패스 313" d="M52.1 44.627h-4.352a1.5 1.5 0 0 1-1.5-1.5v-2.433H53.6v2.433a1.5 1.5 0 0 1-1.5 1.5z" style="stroke-linecap:round;stroke-linejoin:round;stroke:#000;stroke-width:2px;fill:none"/>
            <path data-name="패스 314" d="M63.948 59.128H59.6a1.5 1.5 0 0 0-1.5 1.5v2.433h7.351v-2.433a1.5 1.5 0 0 0-1.5-1.5" style="fill:#fff"/>
            <path data-name="패스 315" d="M63.948 59.128H59.6a1.5 1.5 0 0 0-1.5 1.5v2.433h7.351v-2.433a1.5 1.5 0 0 0-1.503-1.5z" style="stroke-linecap:round;stroke-linejoin:round;stroke:#000;stroke-width:2px;fill:none"/>
            <path data-name="패스 316" d="M28.4 59.128h-4.348a1.5 1.5 0 0 0-1.5 1.5v2.433H29.9v-2.433a1.5 1.5 0 0 0-1.5-1.5" style="fill:#fff"/>
            <path data-name="패스 317" d="M28.4 59.128h-4.348a1.5 1.5 0 0 0-1.5 1.5v2.433H29.9v-2.433a1.5 1.5 0 0 0-1.5-1.5z" style="stroke-linecap:round;stroke-linejoin:round;stroke:#000;stroke-width:2px;fill:none"/>
            <path data-name="패스 318" d="M40.251 59.128H35.9a1.5 1.5 0 0 0-1.5 1.5v2.433h7.351v-2.433a1.5 1.5 0 0 0-1.5-1.5" style="fill:#fff"/>
            <path data-name="패스 319" d="M40.251 59.128H35.9a1.5 1.5 0 0 0-1.5 1.5v2.433h7.351v-2.433a1.5 1.5 0 0 0-1.5-1.5z" style="stroke-linecap:round;stroke-linejoin:round;stroke:#000;stroke-width:2px;fill:none"/>
            <path data-name="패스 320" d="M52.1 59.128h-4.352a1.5 1.5 0 0 0-1.5 1.5v2.433H53.6v-2.433a1.5 1.5 0 0 0-1.5-1.5" style="fill:#fff"/>
            <path data-name="패스 321" d="M52.1 59.128h-4.352a1.5 1.5 0 0 0-1.5 1.5v2.433H53.6v-2.433a1.5 1.5 0 0 0-1.5-1.5z" style="stroke-linecap:round;stroke-linejoin:round;stroke:#000;stroke-width:2px;fill:none"/>
            <path data-name="패스 322" d="M65.639 40.315H22.36a1.5 1.5 0 0 1-1.5-1.5V37.22a1.5 1.5 0 0 1 1.5-1.5h43.279a1.5 1.5 0 0 1 1.5 1.5v1.595a1.5 1.5 0 0 1-1.5 1.5" style="fill:#91d18f"/>
            <rect data-name="사각형 165" width="46.279" height="4.595" rx="1.5" transform="translate(20.86 35.72)" style="stroke-linecap:round;stroke-linejoin:round;stroke:#000;stroke-width:2px;fill:none"/>
            <path data-name="패스 323" d="M44 35.94H17.911v-3.113L44 18.465l26.089 14.362v3.113z" style="fill:#fff"/>
            <path data-name="패스 324" d="M44 35.94H17.911v-3.113L44 18.465l26.089 14.362v3.113z" style="stroke-linecap:round;stroke-linejoin:round;stroke:#000;stroke-width:2px;fill:none"/>
            <path data-name="패스 327" d="M67.637 67.093H21.229a1.5 1.5 0 0 1-1.5-1.5v-.9a1.5 1.5 0 0 1 1.5-1.5h46.408a1.5 1.5 0 0 1 1.5 1.5v.9a1.5 1.5 0 0 1-1.5 1.5" style="fill:#91d18f"/>
            <rect data-name="사각형 166" width="49.408" height="3.899" rx="1.5" transform="translate(19.729 63.194)" style="stroke-linecap:round;stroke-linejoin:round;stroke:#000;stroke-width:2px;fill:none"/>
            <g data-name="사각형 195" transform="translate(36 28)" style="stroke:#000;stroke-width:2px;fill:#fff">
                <rect width="17" height="5" rx="2" style="stroke:none"/>
                <rect x="1" y="1" width="15" height="3" rx="1" style="fill:none"/>
            </g>
        </g>
    </g>
</svg>
