<?xml version="1.0" encoding="utf-8"?>
<!-- Generator: Adobe Illustrator 24.2.0, SVG Export Plug-In . SVG Version: 6.00 Build 0)  -->
<svg version="1.1" id="Layer_1" xmlns="http://www.w3.org/2000/svg" xmlns:xlink="http://www.w3.org/1999/xlink" x="0px" y="0px"
	 width="387.6px" height="40.4px" viewBox="0 0 387.6 40.4" style="enable-background:new 0 0 387.6 40.4;" xml:space="preserve">
<g>
	<g>
		<g>
			<g>
				<path d="M40.7,21.7H47v5.8c-1.2,0.4-3.4,0.9-5.6,0.9c-6.9,0-9.3-3.5-9.3-10.7c0-6.9,2.2-10.9,9.2-10.9c3.9,0,6.1,1.2,7.9,3.5
					L54,6c-2.9-4.2-8-5.5-12.8-5.5c-10.8,0-16.5,5.9-16.5,17.2c0,11.2,5.1,17.3,16.5,17.3c5.2,0,10.3-1.3,13-3.3V15.5H40.7V21.7z"/>
				<polygon points="7.7,1 0,1 0,34.4 23.7,34.4 23.7,27.9 7.7,27.9 				"/>
			</g>
		</g>
		<g>
			<g>
				<g>
					<g>
						<g>
							<rect x="108.5" y="1.1" width="8.6" height="33.3"/>
							<path d="M138.7,0.1c-9.8,0-17.7,7.9-17.7,17.7c0,9.8,7.9,17.7,17.7,17.7c9.8,0,17.7-7.9,17.7-17.7
								C156.4,8.1,148.5,0.1,138.7,0.1z M138.7,27.1c-5.1,0-9.2-4.2-9.2-9.3c0-5.1,4.1-9.2,9.2-9.2c5.1,0,9.3,4.1,9.3,9.2
								C148,23,143.8,27.1,138.7,27.1z"/>
							<path d="M188.6,24.9c0,11.7-15.3,10.7-15.3,10.7c-14.2,0.2-15-8.2-14.9-10.8V24h8.8l0,1c0,1.2,0.5,3.7,6.1,3.7
								c5.4,0,6.5-1.7,6.5-3.4c0-2.1-3.2-3-6.5-3.8c-2.6-0.6-4.2-0.7-6.8-1.4c-3.7-1-7.6-3.8-7.6-9.5c0,0-1.1-10.4,14.3-10.6
								c0,0,14.4-0.7,14.3,10.8V11h-8.8v-0.3c-0.3-4-5.5-3.8-5.5-3.8c-4.7,0-5.5,2.3-5.5,3.3c0,1.9,1.2,3.3,4,3.9
								c0,0,2.5,0.5,6.8,1.3C182.8,16.4,188.6,18.6,188.6,24.9z"/>
							<path d="M88.5,1.1H74.2v33.3h14.3c9.2,0,16.7-7.5,16.7-16.7C105.2,8.5,97.7,1.1,88.5,1.1z M86.2,28h-3.4V7.5h3.4
								c5.6,0,9.9,4.6,9.9,10.2C96.1,23.4,91.8,28,86.2,28z"/>
						</g>
					</g>
				</g>
			</g>
		</g>
	</g>
	<g>
		<g>
			<g>
				<g>
					<path d="M304.2,27.4c0,0.8,0.1,1.5,0.3,2.2c0.2,0.6,0.5,1.2,0.9,1.6c0.4,0.5,0.9,0.8,1.5,1.1c0.6,0.3,1.3,0.4,2.2,0.4h3.7
						l-0.9,1.9h-3.3c-0.9,0-1.8-0.2-2.6-0.5c-0.8-0.3-1.5-0.8-2.1-1.4c-0.6-0.6-1.1-1.4-1.4-2.2c-0.3-0.9-0.5-1.9-0.5-3
						c0-1.1,0.2-2.1,0.5-2.9c0.3-0.9,0.8-1.6,1.4-2.2c0.6-0.6,1.3-1.1,2.1-1.4c0.8-0.3,1.7-0.5,2.6-0.5h4.2l-0.9,1.9h-2.8
						c-0.8,0-1.5,0.1-2.1,0.4c-0.6,0.3-1.1,0.6-1.5,1.1c-0.4,0.5-0.7,1-0.9,1.7C304.4,25.9,304.2,26.6,304.2,27.4z"/>
					<path d="M318.8,34.8c-0.8,0-1.5-0.1-2.2-0.4c-0.6-0.3-1.2-0.6-1.6-1.1c-0.4-0.5-0.8-1-1-1.7c-0.2-0.7-0.3-1.4-0.3-2.2
						c0-0.8,0.1-1.6,0.3-2.3c0.2-0.7,0.6-1.3,1-1.7c0.4-0.5,1-0.9,1.6-1.1c0.6-0.3,1.4-0.4,2.2-0.4c0.8,0,1.5,0.1,2.2,0.4
						c0.6,0.3,1.2,0.6,1.6,1.1c0.4,0.4,0.8,1,1,1.7c0.2,0.7,0.4,1.4,0.4,2.3c0,0.8-0.1,1.6-0.4,2.3c-0.2,0.7-0.6,1.2-1,1.7
						c-0.4,0.5-1,0.8-1.6,1.1C320.4,34.7,319.6,34.8,318.8,34.8z M318.8,25.6c-1,0-1.8,0.3-2.3,1c-0.5,0.7-0.8,1.6-0.8,2.7
						c0,1.1,0.3,2,0.8,2.7c0.5,0.7,1.3,1,2.3,1c0.5,0,1-0.1,1.4-0.3c0.4-0.2,0.7-0.5,1-0.8c0.3-0.3,0.5-0.7,0.6-1.2
						c0.1-0.4,0.2-0.9,0.2-1.4c0-1.1-0.3-2-0.8-2.7C320.6,26,319.9,25.6,318.8,25.6z"/>
					<path d="M328,34.5c-1.6,0-2.5-0.9-2.5-2.6V20.3h2V32c0,0.3,0,0.4,0.1,0.6c0.1,0.1,0.3,0.2,0.5,0.2h1.2l-0.9,1.8H328z"/>
					<path d="M333.4,34.5c-1.6,0-2.4-0.9-2.4-2.6V20.3h2V32c0,0.3,0.1,0.4,0.2,0.6c0.1,0.1,0.3,0.2,0.5,0.2h1.2l-0.9,1.8H333.4z"/>
					<path d="M343.6,34.5h-3.5c-0.8,0-1.5-0.1-2.1-0.4c-0.6-0.3-1.1-0.7-1.5-1.1c-0.4-0.5-0.7-1-0.9-1.7c-0.2-0.6-0.3-1.3-0.3-2.1
						c0-0.7,0.1-1.4,0.3-2.1c0.2-0.6,0.5-1.2,0.9-1.7c0.4-0.5,0.9-0.9,1.6-1.1c0.6-0.3,1.4-0.4,2.2-0.4c0.9,0,1.7,0.1,2.3,0.4
						c0.6,0.3,1.1,0.7,1.5,1.1c0.4,0.5,0.6,1.1,0.8,1.7c0.2,0.7,0.2,1.4,0.2,2.1v1.1h-7.7c0.1,0.8,0.4,1.4,0.9,1.8
						c0.5,0.4,1.1,0.6,1.9,0.6h4.3L343.6,34.5z M340.3,25.7c-0.9,0-1.6,0.3-2.1,0.8c-0.5,0.5-0.7,1.2-0.8,2.1h5.7
						c0-0.9-0.3-1.6-0.7-2.1C341.9,25.9,341.2,25.7,340.3,25.7z"/>
					<path d="M353.8,34.5h-2.4c-0.7,0-1.4-0.1-2-0.4c-0.6-0.2-1.2-0.6-1.6-1c-0.4-0.4-0.8-1-1-1.6c-0.3-0.6-0.4-1.4-0.4-2.2
						c0-0.8,0.1-1.5,0.4-2.2c0.3-0.6,0.6-1.2,1.1-1.6c0.5-0.5,1-0.8,1.6-1c0.6-0.2,1.3-0.4,2-0.4h3.3l-0.9,1.8h-2.3
						c-0.5,0-0.9,0.1-1.3,0.3c-0.4,0.2-0.7,0.4-1,0.7c-0.3,0.3-0.5,0.7-0.6,1.1c-0.2,0.4-0.2,0.9-0.2,1.4c0,1,0.3,1.8,0.8,2.5
						c0.6,0.6,1.3,1,2.3,1h3.2L353.8,34.5z"/>
					<path d="M361.2,34.5h-2c-1.1,0-1.9-0.3-2.5-0.9c-0.6-0.6-0.9-1.4-0.9-2.5V21h2v3.1h4.2l-0.9,1.8h-3.3v5.2
						c0,1.1,0.5,1.6,1.5,1.6h2.8L361.2,34.5z"/>
					<path d="M365.6,20.3v1.8h-2v-1.8H365.6z M365.6,24.1v10.4h-2V24.1H365.6z"/>
					<path d="M371.9,34.8c-0.8,0-1.5-0.1-2.2-0.4c-0.6-0.3-1.2-0.6-1.6-1.1c-0.4-0.5-0.8-1-1-1.7c-0.2-0.7-0.4-1.4-0.4-2.2
						c0-0.8,0.1-1.6,0.4-2.3c0.2-0.7,0.6-1.3,1-1.7c0.4-0.5,1-0.9,1.6-1.1c0.6-0.3,1.4-0.4,2.2-0.4c0.8,0,1.5,0.1,2.2,0.4
						c0.6,0.3,1.2,0.6,1.6,1.1c0.4,0.4,0.8,1,1,1.7c0.2,0.7,0.3,1.4,0.3,2.3c0,0.8-0.1,1.6-0.3,2.3c-0.2,0.7-0.6,1.2-1,1.7
						c-0.4,0.5-1,0.8-1.6,1.1C373.5,34.7,372.7,34.8,371.9,34.8z M371.9,25.6c-1,0-1.8,0.3-2.3,1c-0.5,0.7-0.8,1.6-0.8,2.7
						c0,1.1,0.3,2,0.8,2.7c0.5,0.7,1.3,1,2.3,1c0.5,0,1-0.1,1.4-0.3c0.4-0.2,0.7-0.5,1-0.8c0.3-0.3,0.5-0.7,0.6-1.2
						c0.1-0.4,0.2-0.9,0.2-1.4c0-1.1-0.3-2-0.8-2.7C373.7,26,373,25.6,371.9,25.6z"/>
					<path d="M384.1,24.1c1,0,1.8,0.3,2.5,0.9c0.7,0.6,1,1.5,1,2.7v6.8h-2v-6.8v0c0-0.6-0.2-1.1-0.5-1.3c-0.3-0.2-0.7-0.4-1.1-0.4
						h-3.3v8.6h-2V24.1H384.1z"/>
				</g>
			</g>
			<g>
				<path d="M238.6,22.9c0,1.8-0.3,3.4-0.8,4.9c-0.5,1.5-1.3,2.8-2.3,3.8c-1,1.1-2.2,1.9-3.6,2.5c-1.4,0.6-3.1,0.9-4.9,0.9
					c-1.9,0-3.5-0.3-4.9-0.9c-1.4-0.6-2.6-1.4-3.6-2.5c-1-1.1-1.7-2.3-2.2-3.8c-0.5-1.5-0.8-3.1-0.8-5c0-1.8,0.3-3.5,0.8-5
					c0.5-1.5,1.3-2.8,2.2-3.9c1-1.1,2.2-1.9,3.6-2.5c1.4-0.6,3.1-0.9,4.9-0.9c1.9,0,3.5,0.3,4.9,0.9c1.4,0.6,2.6,1.4,3.6,2.5
					c1,1.1,1.7,2.4,2.2,3.9C238.4,19.4,238.6,21.1,238.6,22.9z M227,31.9c1.2,0,2.2-0.2,3.2-0.6c1-0.4,1.8-1,2.5-1.8
					c0.7-0.8,1.3-1.7,1.6-2.8c0.4-1.1,0.6-2.4,0.6-3.8c0-1.5-0.2-2.7-0.6-3.9c-0.4-1.1-0.9-2.1-1.6-2.8c-0.7-0.8-1.5-1.4-2.5-1.8
					c-1-0.4-2.1-0.6-3.2-0.6c-1.2,0-2.3,0.2-3.2,0.6c-1,0.4-1.8,1-2.5,1.8c-0.7,0.8-1.2,1.7-1.6,2.8c-0.4,1.1-0.6,2.4-0.6,3.8
					c0,1.4,0.2,2.7,0.6,3.8c0.4,1.1,0.9,2.1,1.6,2.8c0.7,0.8,1.5,1.3,2.5,1.7C224.8,31.7,225.9,31.9,227,31.9z"/>
				<path d="M245.2,11.2v6.2h3.2c1.2,0,2.3,0.2,3.3,0.6c1,0.4,1.9,1,2.6,1.7c0.7,0.7,1.3,1.6,1.7,2.7c0.4,1.1,0.6,2.2,0.6,3.5
					c0,1.3-0.2,2.5-0.6,3.6c-0.4,1-1,1.9-1.7,2.7c-0.7,0.7-1.6,1.3-2.6,1.7c-1,0.4-2.1,0.6-3.2,0.6h-6.5V11.2H245.2z M245.2,31.6h3
					c0.8,0,1.5-0.1,2.1-0.4c0.6-0.3,1.2-0.7,1.6-1.2c0.4-0.5,0.8-1.1,1-1.8c0.2-0.7,0.3-1.4,0.3-2.2c0-0.8-0.1-1.5-0.3-2.2
					c-0.2-0.7-0.5-1.3-1-1.8c-0.4-0.5-1-0.9-1.6-1.2c-0.6-0.3-1.4-0.5-2.2-0.5h-3V31.6z"/>
				<path d="M260.5,17.5v17.5c0,0.8-0.2,1.4-0.5,1.9c-0.3,0.5-0.8,0.7-1.5,0.7h-0.3H258h-0.7h0h-0.2l-1.5,2.9h1.7h0h0.7h0.1h0.6
					c0.7,0,1.4-0.1,2-0.4c0.6-0.2,1.1-0.6,1.6-1.1c0.4-0.5,0.8-1,1-1.7c0.2-0.7,0.4-1.4,0.4-2.3V17.5H260.5z"/>
				<path d="M280.6,34.5h-5.7c-1.3,0-2.5-0.2-3.5-0.7c-1-0.5-1.8-1.1-2.5-1.9c-0.7-0.8-1.2-1.7-1.5-2.7c-0.3-1.1-0.5-2.2-0.5-3.4
					c0-1.2,0.2-2.3,0.5-3.4c0.3-1.1,0.8-2,1.5-2.8c0.7-0.8,1.5-1.4,2.5-1.9c1-0.5,2.2-0.7,3.7-0.7c1.5,0,2.8,0.2,3.8,0.7
					c1,0.5,1.8,1.1,2.5,1.9c0.6,0.8,1.1,1.7,1.3,2.8c0.3,1.1,0.4,2.2,0.4,3.4v1.8h-12.6c0.2,1.3,0.7,2.3,1.5,3c0.8,0.7,1.8,1,3.1,1
					h7L280.6,34.5z M275.1,19.9c-1.5,0-2.7,0.4-3.5,1.3c-0.8,0.9-1.2,2-1.3,3.5h9.3c-0.1-1.5-0.5-2.6-1.2-3.5
					C277.7,20.4,276.6,19.9,275.1,19.9z"/>
				<path d="M294.6,34.5h-3.3c-1.7,0-3.1-0.5-4-1.5c-1-1-1.5-2.4-1.5-4.2V12.3h3.3v5.1h6.9l-1.4,2.9h-5.4v8.6c0,1.7,0.8,2.6,2.4,2.6
					h4.6L294.6,34.5z"/>
				<polygon points="267.4,11.2 264.2,11.2 260.5,15.7 263.7,15.7 				"/>
			</g>
		</g>
		<rect x="201.2" y="10.6" width="1.5" height="24.4"/>
	</g>
</g>
</svg>
